<?xml version="1.0" encoding="utf-8"?>
<!-- Generator: Adobe Illustrator 28.3.0, SVG Export Plug-In . SVG Version: 6.00 Build 0)  -->
<svg version="1.1" id="Capa_1" xmlns="http://www.w3.org/2000/svg" xmlns:xlink="http://www.w3.org/1999/xlink" x="0px" y="0px"
	 viewBox="0 0 50 50" style="enable-background:new 0 0 50 50;" xml:space="preserve">
<style type="text/css">
	.st0{fill:#FFFFFF;}
</style>
<g>
	<g>
		<path class="st0" d="M9.1,36.9c0.2-2.8-0.2-5.5-0.9-8.1c-0.5-1.6-1.1-3.2-1.5-4.8c-0.9-3.7,0.2-6.9,3-9.5c1.8-1.6,3.8-2.9,6.1-3.6
			c1.5-0.4,3-0.4,4.3,0.4c1.5,0.9,2.2,2.4,2.5,4.1c0.3,1.5,0,2.9-0.9,4.1c-0.9,1.3-1.8,2.7-2.7,4.1c-1.6,2.3-2.1,4.8-2.1,7.5
			c0,1.4,0.5,2.7,1.3,4c0.6,0.9,1.2,1.8,1.5,2.8c0.7,2.1,0.4,4.2-1,6c-1.4,1.7-3.3,2.4-5.4,1.9c-2.1-0.5-3.6-1.9-4-4.1
			c-0.3-1.5-0.3-3-0.2-4.5C9.1,37,9.1,37,9.1,36.9z"/>
		<path class="st0" d="M18.4,6.8c0-0.6,0.2-1.3,0.6-1.9c0.7-1,1.8-1.1,2.7-0.4c1.3,1.1,1.5,3.7,0.4,4.9c-0.9,1.1-2.2,0.9-3.1-0.3
			C18.7,8.6,18.4,7.8,18.4,6.8z"/>
		<path class="st0" d="M17.8,7.6c-0.2,0.5-0.3,1.1-0.5,1.5c-0.6,1-1.7,1.1-2.5,0.2c-0.8-0.9-1-2.6-0.3-3.6c0.7-0.9,1.8-1,2.6,0
			c0.4,0.5,0.6,1.2,0.6,1.8C17.7,7.6,17.7,7.6,17.8,7.6z"/>
		<path class="st0" d="M11.9,6.9c0.5,0.1,0.9,0.3,1.2,0.7c0.8,0.9,0.8,2.3,0.1,3.2c-0.5,0.7-1.4,0.8-2.1,0.2c-1-0.9-1.1-2.7-0.1-3.6
			C11.2,7.2,11.5,7.1,11.9,6.9z"/>
		<path class="st0" d="M10.3,11.8c0,0.6-0.2,1.2-0.7,1.6c-0.5,0.4-1.1,0.5-1.6,0.1c-1-0.8-1.2-2.5-0.4-3.4C8.2,9.5,9,9.4,9.6,10
			C10.1,10.5,10.3,11.1,10.3,11.8z"/>
		<path class="st0" d="M7.6,14.9c-0.1,0.6-0.2,1-0.6,1.4c-0.5,0.5-1.2,0.6-1.7,0.1c-0.8-0.6-0.9-2.1-0.3-2.8
			c0.6-0.8,1.6-0.7,2.1,0.1C7.4,14.1,7.5,14.5,7.6,14.9z"/>
	</g>
	<g>
		<path d="M41,36.9c-0.2-2.8,0.2-5.5,0.9-8.1c0.5-1.6,1.1-3.2,1.5-4.8c0.9-3.7-0.2-6.9-3-9.5c-1.8-1.6-3.8-2.9-6.1-3.6
			c-1.5-0.4-3-0.4-4.3,0.4c-1.5,0.9-2.2,2.4-2.5,4.1c-0.3,1.5,0,2.9,0.9,4.1c0.9,1.3,1.8,2.7,2.7,4.1c1.6,2.3,2.1,4.8,2.1,7.5
			c0,1.4-0.5,2.7-1.3,4c-0.6,0.9-1.2,1.8-1.5,2.8c-0.7,2.1-0.4,4.2,1,6c1.4,1.7,3.3,2.4,5.4,1.9c2.1-0.5,3.6-1.9,4-4.1
			c0.3-1.5,0.3-3,0.2-4.5C41,37,41,37,41,36.9z"/>
		<path d="M31.6,6.8c0-0.6-0.2-1.3-0.6-1.9c-0.7-1-1.8-1.1-2.7-0.4c-1.3,1.1-1.5,3.7-0.4,4.9c0.9,1.1,2.2,0.9,3.1-0.3
			C31.4,8.6,31.6,7.8,31.6,6.8z"/>
		<path d="M32.3,7.6c0.2,0.5,0.3,1.1,0.5,1.5c0.6,1,1.7,1.1,2.5,0.2c0.8-0.9,1-2.6,0.3-3.6c-0.7-0.9-1.8-1-2.6,0
			c-0.4,0.5-0.6,1.2-0.6,1.8C32.4,7.6,32.3,7.6,32.3,7.6z"/>
		<path d="M38.2,6.9C37.7,7,37.3,7.2,37,7.6c-0.8,0.9-0.8,2.3-0.1,3.2c0.5,0.7,1.4,0.8,2.1,0.2c1-0.9,1.1-2.7,0.1-3.6
			C38.9,7.2,38.5,7.1,38.2,6.9z"/>
		<path d="M39.7,11.8c0,0.6,0.2,1.2,0.7,1.6c0.5,0.4,1.1,0.5,1.6,0.1c1-0.8,1.2-2.5,0.4-3.4C41.9,9.5,41,9.4,40.4,10
			C39.9,10.5,39.8,11.1,39.7,11.8z"/>
		<path d="M42.4,14.9c0.1,0.6,0.2,1,0.6,1.4c0.5,0.5,1.2,0.6,1.7,0.1c0.8-0.6,0.9-2.1,0.3-2.8c-0.6-0.8-1.6-0.7-2.1,0.1
			C42.7,14.1,42.6,14.5,42.4,14.9z"/>
	</g>
</g>
</svg>
